<svg  viewBox="0 0 32 29" fill="none" xmlns="http://www.w3.org/2000/svg">
<path d="M28.7235 24.8615C24.2638 28.6452 20.9382 28.3842 15.4529 29C9.39434 28.7157 6.20889 28.1431 2.6254 22.7922C-0.547494 17.6552 -0.847035 14.6195 1.74075 8.72118C3.93102 3.87511 8.37473 0.444104 15.4529 0.0302509C22.531 -0.383603 27.8815 3.5112 30.0496 7.89347C32.6429 14.4322 33.07 19.1479 28.7235 24.8615Z" fill="#656F92"/>
<path d="M10.1316 4.99609V9.23201C10.1316 9.23201 8.04014 12.7619 7.52207 14.8799C7.004 16.9978 13.3935 20.5278 13.3935 20.5278C13.3935 20.5278 12.174 22.9058 11.6367 24.0577C11.0995 25.2096 13.3935 28.9996 13.3935 28.9996H16.6555C21.1262 28.9996 19.265 28.3679 19.265 28.3679C19.265 28.3679 21.1155 26.9931 20.962 25.2096C20.8085 23.426 19.265 20.5278 19.265 20.5278C19.265 20.5278 24.6184 16.9978 25.1365 14.8799C25.6545 12.7619 21.8745 9.23201 21.8745 9.23201V4.99609L19.265 9.23201L16.6555 7.82004L13.3935 9.23201L10.1316 4.99609Z" fill="#99A7D4"/>
<path d="M7.49185 21.9646C6.60719 20.723 4.83789 19.4814 4.83789 19.4814C4.83789 19.4814 6.16487 24.8615 8.3765 24.8615C10.5881 24.8615 12.3574 25.2754 12.3574 25.2754V23.2061C12.3574 23.2061 10.1458 24.4477 9.26115 23.62C8.3765 22.7923 8.3765 23.2061 7.49185 21.9646Z" fill="#99A7D4"/>
</svg>
