<svg width="29" height="26" viewBox="0 0 29 26" fill="none" xmlns="http://www.w3.org/2000/svg">
<path d="M0 21V5.5C0 2.73858 2.23858 0.5 5 0.5H23.5C26.2614 0.5 28.5 2.73858 28.5 5.5V21C28.5 23.7614 26.2614 26 23.5 26H5C2.23858 26 0 23.7614 0 21Z" fill="#656F92"/>
<path d="M7.20739 22V11.0909H10.233V22H7.20739ZM8.72727 9.68466C8.27746 9.68466 7.89157 9.53551 7.5696 9.23722C7.25237 8.93419 7.09375 8.57197 7.09375 8.15057C7.09375 7.7339 7.25237 7.37642 7.5696 7.07812C7.89157 6.77509 8.27746 6.62358 8.72727 6.62358C9.17708 6.62358 9.56061 6.77509 9.87784 7.07812C10.1998 7.37642 10.3608 7.7339 10.3608 8.15057C10.3608 8.57197 10.1998 8.93419 9.87784 9.23722C9.56061 9.53551 9.17708 9.68466 8.72727 9.68466ZM15.6822 15.6932V22H12.6566V11.0909H15.5401V13.0156H15.668C15.9094 12.3812 16.3143 11.8793 16.8825 11.5099C17.4506 11.1359 18.1396 10.9489 18.9492 10.9489C19.7068 10.9489 20.3673 11.1146 20.9308 11.446C21.4942 11.7775 21.9322 12.2509 22.2447 12.8665C22.5572 13.4773 22.7134 14.2064 22.7134 15.054V22H19.6879V15.5938C19.6926 14.9261 19.5221 14.4053 19.1765 14.0312C18.8308 13.6525 18.355 13.4631 17.7489 13.4631C17.3417 13.4631 16.9819 13.5507 16.6694 13.7259C16.3616 13.901 16.1201 14.1567 15.945 14.4929C15.7745 14.8243 15.6869 15.2244 15.6822 15.6932Z" fill="#99A7D4"/>
</svg>
