<svg width="222" height="80" viewBox="0 0 222 80" fill="none" xmlns="http://www.w3.org/2000/svg">
<path d="M194.405 7.0457L143.242 13.5833L142.387 36.8603L161.32 45.9727L155.229 61.9354L165.93 69.9385C192.438 69.8339 208.29 69.1351 219.566 71.4206L214.995 46.0019L197.365 38.8798L194.405 7.0457Z" fill="#8C94C3"/>
<path d="M64.0222 34.6286L64.9485 9.41189L148.789 12.4915L152.081 35.2734L166.892 44.2343L166.298 60.3989L174.212 69.754C-39.5932 74.6664 -6.22829 70.2313 17.5256 63.9986L63.2147 56.6125L55.7756 34.3257L64.0222 34.6286Z" fill="#4D4F68"/>
<path d="M95.3517 5.99682L64.9477 9.41222L148.741 13.785L194.406 7.04546L95.3517 5.99682Z" fill="#AABDDB"/>
</svg>
